<svg xmlns="http://www.w3.org/2000/svg" width="240" height="160" viewBox="0 0 240 160" fill="none">
  <!-- Pastel confetti and stars -->
  <path d="M120 30 l5 10 10 5 -10 5 -5 10 -5 -10 -10 -5 10 -5 Z" fill="#FCF5BF" stroke="#2D2640" stroke-width="1" opacity="0.95"/>
  <path d="M60 60 l3.5 7 7 3.5 -7 3.5 -3.5 7 -3.5 -7 -7 -3.5 7 -3.5 Z" fill="#D0F4E0"/>
  <path d="M180 55 l3.5 7 7 3.5 -7 3.5 -3.5 7 -3.5 -7 -7 -3.5 7 -3.5 Z" fill="#FF99C8"/>
  <path d="M200 110 l3 6 6 3 -6 3 -3 6 -3 -6 -6 -3 6 -3 Z" fill="#E8C0FC"/>
  <path d="M40 110 l3 6 6 3 -6 3 -3 6 -3 -6 -6 -3 6 -3 Z" fill="#A8DEFA"/>
  <!-- Confetti pieces -->
  <rect x="90" y="90" width="10" height="5" rx="2.5" fill="#FF99C8" transform="rotate(24 95 92)"/>
  <rect x="140" y="86" width="10" height="5" rx="2.5" fill="#A8DEFA" transform="rotate(-30 145 88)"/>
  <rect x="110" y="120" width="10" height="5" rx="2.5" fill="#D0F4E0" transform="rotate(12 115 122)"/>
  <rect x="70" y="24" width="9" height="5" rx="2.5" fill="#E8C0FC" transform="rotate(-20 74 26)"/>
  <rect x="160" y="20" width="9" height="5" rx="2.5" fill="#FCF5BF" transform="rotate(35 164 22)"/>
  <rect x="30" y="70" width="9" height="5" rx="2.5" fill="#FF99C8" transform="rotate(-45 34 72)"/>
  <rect x="205" y="75" width="9" height="5" rx="2.5" fill="#D0F4E0" transform="rotate(50 209 77)"/>
  <!-- Dots -->
  <circle cx="120" cy="70" r="3.5" fill="#FF99C8"/>
  <circle cx="85" cy="45" r="3" fill="#A8DEFA"/>
  <circle cx="155" cy="45" r="3" fill="#D0F4E0"/>
  <circle cx="55" cy="130" r="3" fill="#E8C0FC"/>
  <circle cx="185" cy="130" r="3" fill="#FCF5BF"/>
  <!-- Curly streamers -->
  <path d="M20 30 q8 8 0 16 q-8 8 0 16" stroke="#FF99C8" stroke-width="2.5" fill="none" stroke-linecap="round"/>
  <path d="M220 26 q-8 8 0 16 q8 8 0 16" stroke="#A8DEFA" stroke-width="2.5" fill="none" stroke-linecap="round"/>
</svg>
